<?xml version="1.0" encoding="UTF-8"?><svg width="115" height="35" viewBox="0 0 115 35" fill="none" xmlns="http://www.w3.org/2000/svg"><g clip-path="url(#clip0_1522_33271)"><path d="M5.72326 11.3229C5.92913 12.8876 6.17618 14.6169 6.21735 16.5109C12.3112 14.164 14.8228 9.96417 15.0698 6.7114C15.2757 4.48798 14.4934 2.59396 13.0111 1.81165C12.517 1.52343 11.9406 1.3999 11.3641 1.3999C10.1701 1.3999 8.81133 1.93517 7.41141 3.0057C4.81742 4.7762 5.18799 7.53488 5.72326 11.3229Z" fill="#0057B7"/><path d="M21.8636 28.1221C22.193 28.2868 22.5224 28.4515 22.8518 28.575C26.8046 30.4279 28.6574 31.169 30.675 28.9456C32.1161 27.2574 32.9396 25.2811 32.4455 24.6634C32.2396 24.3752 30.675 23.3047 21.8636 28.1221Z" fill="gold"/><path d="M19.5167 28.2456C17.9109 27.6692 16.6345 27.381 15.1934 27.1751C11.1171 26.5987 6.50559 27.7516 6.0115 29.5221C5.8468 30.0985 6.05267 31.6631 11.1583 33.8042C12.4347 33.8865 13.3405 33.516 14.6169 32.5278C15.1522 32.116 15.6463 31.6219 16.1404 31.1279C17.0051 30.2632 17.9521 29.275 19.5167 28.2456Z" fill="gold"/><path d="M20.7108 28.7397C18.8579 29.8103 17.7874 30.922 16.8815 31.869C16.3463 32.4043 15.8522 32.8984 15.2757 33.3513C14.6169 33.8865 13.9993 34.2571 13.3817 34.5042C14.6993 34.8336 16.0992 34.9982 17.458 34.9982C21.3284 34.9982 25.0752 33.7218 28.081 31.3749C26.3928 31.4161 24.5811 30.5514 22.3577 29.5221C21.8636 29.275 21.3284 29.028 20.7108 28.7397Z" fill="gold"/><path d="M0.782378 22.646C1.0706 23.6341 1.44117 24.54 1.89409 25.4046C2.79992 27.2163 3.33519 27.134 3.37636 27.134C4.2822 26.8869 5.22921 22.9342 5.18804 18.0344C1.81174 19.2697 0.247112 20.8755 0.782378 22.646Z" fill="gold"/><path d="M4.6527 11.4465C4.36448 9.30539 4.07626 7.37019 4.40566 5.64087C1.6058 8.85247 0 13.0523 0 17.3756C0 18.2814 0.0823487 19.1872 0.205872 20.0931C0.905836 19.0225 2.34694 17.8697 5.18797 16.8815C5.1468 14.9051 4.89975 13.0934 4.6527 11.4465Z" fill="#0057B7"/><path d="M31.9514 11.5289C33.0219 12.023 33.8866 12.5995 34.5454 13.2583C33.3101 7.94677 29.6868 3.45877 24.6223 1.23535C25.0341 2.38823 24.9106 3.91168 24.3753 5.18809C23.7989 6.67037 23.4695 7.78207 23.3048 8.39969L23.2224 8.81143C24.1694 9.3467 25.6517 9.71727 27.2575 10.0878C28.8221 10.4996 30.4691 10.9113 31.9514 11.5289Z" fill="#0057B7"/><path d="M27.0104 11.1583C25.5281 10.7878 24.087 10.4584 23.0165 9.9231C22.7694 13.1759 25.3222 16.9639 28.1221 19.1462C30.222 20.7931 32.3219 21.4519 33.5159 20.8343C34.71 20.2579 34.957 18.5285 34.957 17.211C34.9982 13.0523 30.7572 12.0642 27.0104 11.1583Z" fill="gold"/><path d="M22.7282 0.535267C21.6165 0.164698 20.6695 0 19.846 0C18.7343 0 17.9108 0.329395 17.5814 0.988185C16.9226 2.30576 18.1167 5.10562 22.3165 8.1937C22.4812 7.49373 22.8106 6.38203 23.4282 4.8174C24.0458 3.12925 23.9635 1.02936 22.7282 0.535267Z" fill="#0057B7"/><path d="M45.8682 10.7466H50.6033L55.5854 25.24H51.962L51.015 22.3578H45.4153L44.4683 25.24H40.845L45.8682 10.7466ZM50.1092 19.4755L48.4622 14.2876H48.0505L46.4035 19.4755H50.1092Z" fill="#fff"/><path d="M55.5031 14.6992H58.7147L60.8969 21.6165H61.3086L63.4909 14.6992H66.7025L63.2027 25.2399H59.044L55.5031 14.6992Z" fill="#fff"/><path d="M78.149 22.0283C77.9019 22.6871 77.5313 23.2635 77.0784 23.7576C76.2549 24.6223 75.0197 25.4458 73.0433 25.4458C69.8317 25.4458 67.5671 23.1812 67.5671 19.9696C67.5671 16.758 69.8317 14.4934 73.0433 14.4934C76.1314 14.4934 78.4372 16.758 78.4372 19.7637C78.4372 20.1755 78.396 20.3813 78.3548 20.546L78.3137 20.7931H70.6552C70.7787 22.0283 71.6846 22.9753 73.0433 22.9753C73.7021 22.9753 74.1962 22.7283 74.5256 22.5224C74.7315 22.3577 74.8962 22.2342 75.0197 22.0283H78.149ZM75.4314 18.9402C75.1021 17.5403 74.3197 16.8815 73.0433 16.8815C71.7669 16.8815 70.9846 17.5815 70.6552 18.9402H75.4314Z" fill="#fff"/><path d="M80.4136 14.6993H83.0899L83.2958 15.6463H83.4193C83.6252 15.4404 83.8722 15.2345 84.1193 15.0698C84.6134 14.7405 85.3133 14.4934 86.3015 14.4934C88.772 14.4934 90.5425 16.2639 90.5425 18.8579V25.2811H87.4544V19.4755C87.4544 18.3226 86.6309 17.4991 85.478 17.4991C84.3251 17.4991 83.5017 18.3226 83.5017 19.4755V25.2811H80.4136V14.6993Z" fill="#fff"/><path d="M95.9363 25.6517C96.0186 25.8988 96.1421 26.0635 96.3068 26.2282C96.6362 26.5576 97.0891 26.8046 97.9126 26.8046C99.2714 26.8046 99.9714 26.0635 99.9714 24.8283V23.593H99.8478C99.6831 23.7989 99.4773 23.9636 99.2302 24.1283C98.8185 24.4165 98.2009 24.6636 97.3774 24.6636C94.5775 24.6636 92.5188 22.6048 92.5188 19.5991C92.5188 16.5934 94.5775 14.5347 97.3774 14.5347C98.3244 14.5347 98.9832 14.8641 99.4361 15.1523C99.6831 15.3582 99.889 15.564 100.095 15.7699H100.218L100.424 14.7405H103.101V24.8694C103.101 27.7516 101.33 29.5221 97.9126 29.5221C95.4833 29.5221 94.1658 28.5751 93.507 27.6281C93.0952 27.0517 92.8482 26.4341 92.7247 25.6929H95.9363V25.6517ZM99.9714 19.5579C99.9714 18.3227 99.0243 17.3757 97.7891 17.3757C96.5539 17.3757 95.6069 18.3227 95.6069 19.5579C95.6069 20.7932 96.5539 21.7402 97.7891 21.7402C99.0243 21.7402 99.9714 20.7932 99.9714 19.5579Z" fill="#fff"/><path d="M112.077 24.3342H111.953C111.747 24.5812 111.5 24.7459 111.253 24.9106C110.759 25.24 110.018 25.487 109.071 25.487C106.6 25.487 105.118 24.0459 105.118 22.1931C105.118 20.2167 106.559 18.7756 109.483 18.7756H111.871V18.5698C111.871 17.6227 111.253 17.0051 110.224 17.0051C109.524 17.0051 109.153 17.2522 108.906 17.4992C108.742 17.6639 108.618 17.7874 108.577 17.9521H105.571C105.818 16.0581 107.342 14.5347 110.224 14.5347C113.312 14.5347 115 16.1816 115 18.5698V25.3223H112.324L112.077 24.3342ZM111.871 20.7932H109.894C108.742 20.7932 108.247 21.2873 108.247 21.9461C108.247 22.6048 108.783 23.0989 109.689 23.0989C111.047 23.0989 111.871 22.2754 111.871 21.0402V20.7932Z" fill="#fff"/></g><defs><clipPath id="clip0_1522_33271"><rect width="115" height="34.998" fill="#fff"/></clipPath></defs></svg>